<mxfile host="Electron" agent="Mozilla/5.0 (Windows NT 10.0; Win64; x64) AppleWebKit/537.36 (KHTML, like Gecko) draw.io/24.7.17 Chrome/128.0.6613.36 Electron/32.0.1 Safari/537.36" version="24.7.17">
  <diagram name="REST Client UML Diagram" id="0">
    <mxGraphModel dx="893" dy="2478" grid="1" gridSize="10" guides="1" tooltips="1" connect="1" arrows="1" fold="1" page="1" pageScale="1" pageWidth="850" pageHeight="1100" math="0" shadow="0">
      <root>
        <mxCell id="0" />
        <mxCell id="1" parent="0" />
        <mxCell id="11" style="endArrow=block;endFill=1;entryX=1.011;entryY=0.684;entryDx=0;entryDy=0;entryPerimeter=0;endSize=10;exitX=0.703;exitY=0.03;exitDx=0;exitDy=0;exitPerimeter=0;" parent="1" edge="1" source="IcnLLbOmrU5jKIXnxmKK-46">
          <mxGeometry relative="1" as="geometry">
            <mxPoint x="612.1999999999998" y="372.37999999999965" as="sourcePoint" />
            <mxPoint x="563.19" y="-129.39999999999964" as="targetPoint" />
            <Array as="points">
              <mxPoint x="620" y="-129" />
            </Array>
          </mxGeometry>
        </mxCell>
        <mxCell id="IcnLLbOmrU5jKIXnxmKK-17" value="RestClient" style="swimlane;fontStyle=1;align=center;verticalAlign=top;childLayout=stackLayout;horizontal=1;startSize=26;horizontalStack=0;resizeParent=1;resizeParentMax=0;resizeLast=0;collapsible=1;marginBottom=0;whiteSpace=wrap;html=1;" parent="1" vertex="1">
          <mxGeometry x="270" y="-370" width="290" height="288" as="geometry" />
        </mxCell>
        <mxCell id="IcnLLbOmrU5jKIXnxmKK-18" value="+ view: RestClientUI&lt;br style=&quot;&quot;&gt;+ HttpRequest: HttpRequest&lt;br style=&quot;&quot;&gt;+ history: History" style="text;strokeColor=none;fillColor=none;align=left;verticalAlign=top;spacingLeft=4;spacingRight=4;overflow=hidden;rotatable=0;points=[[0,0.5],[1,0.5]];portConstraint=eastwest;whiteSpace=wrap;html=1;" parent="IcnLLbOmrU5jKIXnxmKK-17" vertex="1">
          <mxGeometry y="26" width="290" height="104" as="geometry" />
        </mxCell>
        <mxCell id="IcnLLbOmrU5jKIXnxmKK-19" value="" style="line;strokeWidth=1;fillColor=none;align=left;verticalAlign=middle;spacingTop=-1;spacingLeft=3;spacingRight=3;rotatable=0;labelPosition=right;points=[];portConstraint=eastwest;strokeColor=inherit;" parent="IcnLLbOmrU5jKIXnxmKK-17" vertex="1">
          <mxGeometry y="130" width="290" height="8" as="geometry" />
        </mxCell>
        <mxCell id="IcnLLbOmrU5jKIXnxmKK-20" value="+ ejecutarRequest(request: HttpRequest): HttpResponse&lt;br style=&quot;&quot;&gt;+ HttpResponse():&amp;nbsp;HttpRequest" style="text;strokeColor=none;fillColor=none;align=left;verticalAlign=top;spacingLeft=4;spacingRight=4;overflow=hidden;rotatable=0;points=[[0,0.5],[1,0.5]];portConstraint=eastwest;whiteSpace=wrap;html=1;" parent="IcnLLbOmrU5jKIXnxmKK-17" vertex="1">
          <mxGeometry y="138" width="290" height="150" as="geometry" />
        </mxCell>
        <mxCell id="IcnLLbOmrU5jKIXnxmKK-26" value="Request" style="swimlane;fontStyle=1;align=center;verticalAlign=top;childLayout=stackLayout;horizontal=1;startSize=26;horizontalStack=0;resizeParent=1;resizeParentMax=0;resizeLast=0;collapsible=1;marginBottom=0;whiteSpace=wrap;html=1;" parent="1" vertex="1">
          <mxGeometry x="320" y="40" width="240" height="290" as="geometry" />
        </mxCell>
        <mxCell id="IcnLLbOmrU5jKIXnxmKK-27" value="&lt;div&gt;+ id: int&lt;/div&gt;&lt;div&gt;+ headers: Map&amp;lt;String, String&amp;gt;&lt;/div&gt;&lt;div&gt;+ queryParams: Map&amp;lt;String, String&amp;gt;&lt;br&gt;&lt;/div&gt;&lt;div&gt;+ body: String&lt;/div&gt;&lt;div&gt;+ url: String&lt;br&gt;&lt;/div&gt;&lt;div&gt;+ method: String&lt;br&gt;&lt;/div&gt;&lt;div&gt;+ body: String&lt;/div&gt;&lt;div&gt;+ name: String&lt;/div&gt;" style="text;strokeColor=none;fillColor=none;align=left;verticalAlign=top;spacingLeft=4;spacingRight=4;overflow=hidden;rotatable=0;points=[[0,0.5],[1,0.5]];portConstraint=eastwest;whiteSpace=wrap;html=1;" parent="IcnLLbOmrU5jKIXnxmKK-26" vertex="1">
          <mxGeometry y="26" width="240" height="124" as="geometry" />
        </mxCell>
        <mxCell id="IcnLLbOmrU5jKIXnxmKK-28" value="" style="line;strokeWidth=1;fillColor=none;align=left;verticalAlign=middle;spacingTop=-1;spacingLeft=3;spacingRight=3;rotatable=0;labelPosition=right;points=[];portConstraint=eastwest;strokeColor=inherit;" parent="IcnLLbOmrU5jKIXnxmKK-26" vertex="1">
          <mxGeometry y="150" width="240" height="8" as="geometry" />
        </mxCell>
        <mxCell id="IcnLLbOmrU5jKIXnxmKK-29" value="&lt;div&gt;+ addHeaders(&lt;span style=&quot;background-color: initial;&quot;&gt;headers: Map&amp;lt;String, String&amp;gt;&lt;/span&gt;&lt;span style=&quot;background-color: initial;&quot;&gt;)&lt;/span&gt;&lt;/div&gt;&lt;div&gt;+ addQuerParams(&lt;span style=&quot;background-color: initial;&quot;&gt;queryParams: Map&amp;lt;String, String&amp;gt;&lt;/span&gt;&lt;span style=&quot;background-color: initial;&quot;&gt;)&lt;/span&gt;&lt;span style=&quot;background-color: initial;&quot;&gt;&lt;br&gt;&lt;/span&gt;&lt;/div&gt;&lt;div&gt;+ toHttpUriRequest(): HttpUriRequestBase&lt;/div&gt;&lt;div&gt;+ buildFullUrl(): String&lt;/div&gt;" style="text;strokeColor=none;fillColor=none;align=left;verticalAlign=top;spacingLeft=4;spacingRight=4;overflow=hidden;rotatable=0;points=[[0,0.5],[1,0.5]];portConstraint=eastwest;whiteSpace=wrap;html=1;" parent="IcnLLbOmrU5jKIXnxmKK-26" vertex="1">
          <mxGeometry y="158" width="240" height="132" as="geometry" />
        </mxCell>
        <mxCell id="IcnLLbOmrU5jKIXnxmKK-32" value="" style="endArrow=classic;html=1;rounded=0;entryX=0.5;entryY=0;entryDx=0;entryDy=0;exitX=0.583;exitY=1.02;exitDx=0;exitDy=0;exitPerimeter=0;endSize=12;" parent="1" source="IcnLLbOmrU5jKIXnxmKK-20" target="IcnLLbOmrU5jKIXnxmKK-26" edge="1">
          <mxGeometry width="50" height="50" relative="1" as="geometry">
            <mxPoint x="200" y="-10" as="sourcePoint" />
            <mxPoint x="250" y="-60" as="targetPoint" />
            <Array as="points" />
          </mxGeometry>
        </mxCell>
        <mxCell id="IcnLLbOmrU5jKIXnxmKK-33" value="Response" style="swimlane;fontStyle=1;align=center;verticalAlign=top;childLayout=stackLayout;horizontal=1;startSize=26;horizontalStack=0;resizeParent=1;resizeParentMax=0;resizeLast=0;collapsible=1;marginBottom=0;whiteSpace=wrap;html=1;" parent="1" vertex="1">
          <mxGeometry x="16" y="320" width="270" height="410" as="geometry" />
        </mxCell>
        <mxCell id="IcnLLbOmrU5jKIXnxmKK-34" value="&lt;div&gt;+ statusCode: int&lt;/div&gt;&lt;div&gt;+ headers: Map&amp;lt;String, String&amp;gt;&lt;/div&gt;&lt;div&gt;&lt;span style=&quot;background-color: initial;&quot;&gt;+ body: String&lt;/span&gt;&lt;br&gt;&lt;/div&gt;&lt;div&gt;&lt;br&gt;&lt;/div&gt;" style="text;strokeColor=none;fillColor=none;align=left;verticalAlign=top;spacingLeft=4;spacingRight=4;overflow=hidden;rotatable=0;points=[[0,0.5],[1,0.5]];portConstraint=eastwest;whiteSpace=wrap;html=1;" parent="IcnLLbOmrU5jKIXnxmKK-33" vertex="1">
          <mxGeometry y="26" width="270" height="144" as="geometry" />
        </mxCell>
        <mxCell id="IcnLLbOmrU5jKIXnxmKK-35" value="" style="line;strokeWidth=1;fillColor=none;align=left;verticalAlign=middle;spacingTop=-1;spacingLeft=3;spacingRight=3;rotatable=0;labelPosition=right;points=[];portConstraint=eastwest;strokeColor=inherit;" parent="IcnLLbOmrU5jKIXnxmKK-33" vertex="1">
          <mxGeometry y="170" width="270" height="8" as="geometry" />
        </mxCell>
        <mxCell id="IcnLLbOmrU5jKIXnxmKK-36" value="&lt;div&gt;&lt;span style=&quot;background-color: initial;&quot;&gt;+ getContentType(): String&lt;/span&gt;&lt;br&gt;&lt;/div&gt;&lt;div&gt;+ getStatusCode(): int&lt;br&gt;&lt;/div&gt;&lt;div&gt;+ getHeaders(): Map&amp;lt;String, String&amp;gt;&lt;/div&gt;&lt;div&gt;+&amp;nbsp;&lt;span style=&quot;background-color: initial;&quot;&gt;getBody(): String&lt;/span&gt;&lt;/div&gt;" style="text;strokeColor=none;fillColor=none;align=left;verticalAlign=top;spacingLeft=4;spacingRight=4;overflow=hidden;rotatable=0;points=[[0,0.5],[1,0.5]];portConstraint=eastwest;whiteSpace=wrap;html=1;" parent="IcnLLbOmrU5jKIXnxmKK-33" vertex="1">
          <mxGeometry y="178" width="270" height="232" as="geometry" />
        </mxCell>
        <mxCell id="IcnLLbOmrU5jKIXnxmKK-46" value="History" style="swimlane;fontStyle=1;align=center;verticalAlign=top;childLayout=stackLayout;horizontal=1;startSize=26;horizontalStack=0;resizeParent=1;resizeParentMax=0;resizeLast=0;collapsible=1;marginBottom=0;whiteSpace=wrap;html=1;" parent="1" vertex="1">
          <mxGeometry x="370" y="370" width="350" height="140" as="geometry" />
        </mxCell>
        <mxCell id="IcnLLbOmrU5jKIXnxmKK-47" value="+ historyDAO:&amp;nbsp;HistoryDAO" style="text;strokeColor=none;fillColor=none;align=left;verticalAlign=top;spacingLeft=4;spacingRight=4;overflow=hidden;rotatable=0;points=[[0,0.5],[1,0.5]];portConstraint=eastwest;whiteSpace=wrap;html=1;" parent="IcnLLbOmrU5jKIXnxmKK-46" vertex="1">
          <mxGeometry y="26" width="350" height="44" as="geometry" />
        </mxCell>
        <mxCell id="IcnLLbOmrU5jKIXnxmKK-48" value="" style="line;strokeWidth=1;fillColor=none;align=left;verticalAlign=middle;spacingTop=-1;spacingLeft=3;spacingRight=3;rotatable=0;labelPosition=right;points=[];portConstraint=eastwest;strokeColor=inherit;" parent="IcnLLbOmrU5jKIXnxmKK-46" vertex="1">
          <mxGeometry y="70" width="350" height="8" as="geometry" />
        </mxCell>
        <mxCell id="IcnLLbOmrU5jKIXnxmKK-49" value="&lt;div&gt;+ saveRequest(request: HttpRequest): void&lt;/div&gt;&lt;div&gt;+ loadHistory(): List&amp;lt;HttpRequest&amp;gt;&lt;/div&gt;&lt;div&gt;+ deleteRequest(id: int)&lt;/div&gt;" style="text;strokeColor=none;fillColor=none;align=left;verticalAlign=top;spacingLeft=4;spacingRight=4;overflow=hidden;rotatable=0;points=[[0,0.5],[1,0.5]];portConstraint=eastwest;whiteSpace=wrap;html=1;" parent="IcnLLbOmrU5jKIXnxmKK-46" vertex="1">
          <mxGeometry y="78" width="350" height="62" as="geometry" />
        </mxCell>
        <mxCell id="brjFlKpmeIuAd_KGiRo_-12" style="endArrow=block;endFill=1;entryX=1;entryY=0.5;entryDx=0;entryDy=0;endSize=10;" parent="1" edge="1">
          <mxGeometry relative="1" as="geometry">
            <mxPoint x="940" y="310" as="sourcePoint" />
            <mxPoint x="560" y="-170" as="targetPoint" />
            <Array as="points">
              <mxPoint x="940" y="-168" />
            </Array>
          </mxGeometry>
        </mxCell>
        <mxCell id="s-s6IYjajMuCNmnJvVr1-12" value="" style="endArrow=classic;html=1;rounded=0;exitX=0;exitY=0.5;exitDx=0;exitDy=0;endSize=12;" edge="1" parent="1" source="IcnLLbOmrU5jKIXnxmKK-20" target="IcnLLbOmrU5jKIXnxmKK-33">
          <mxGeometry width="50" height="50" relative="1" as="geometry">
            <mxPoint x="154" y="-69" as="sourcePoint" />
            <mxPoint x="155" y="50" as="targetPoint" />
            <Array as="points">
              <mxPoint x="150" y="-157" />
            </Array>
          </mxGeometry>
        </mxCell>
        <mxCell id="s-s6IYjajMuCNmnJvVr1-13" value="Favorite" style="swimlane;fontStyle=1;align=center;verticalAlign=top;childLayout=stackLayout;horizontal=1;startSize=26;horizontalStack=0;resizeParent=1;resizeParentMax=0;resizeLast=0;collapsible=1;marginBottom=0;whiteSpace=wrap;html=1;" vertex="1" parent="1">
          <mxGeometry x="760" y="310" width="350" height="140" as="geometry" />
        </mxCell>
        <mxCell id="s-s6IYjajMuCNmnJvVr1-14" value="+ favoriteDAO: FavoriteDAO" style="text;strokeColor=none;fillColor=none;align=left;verticalAlign=top;spacingLeft=4;spacingRight=4;overflow=hidden;rotatable=0;points=[[0,0.5],[1,0.5]];portConstraint=eastwest;whiteSpace=wrap;html=1;" vertex="1" parent="s-s6IYjajMuCNmnJvVr1-13">
          <mxGeometry y="26" width="350" height="44" as="geometry" />
        </mxCell>
        <mxCell id="s-s6IYjajMuCNmnJvVr1-15" value="" style="line;strokeWidth=1;fillColor=none;align=left;verticalAlign=middle;spacingTop=-1;spacingLeft=3;spacingRight=3;rotatable=0;labelPosition=right;points=[];portConstraint=eastwest;strokeColor=inherit;" vertex="1" parent="s-s6IYjajMuCNmnJvVr1-13">
          <mxGeometry y="70" width="350" height="8" as="geometry" />
        </mxCell>
        <mxCell id="s-s6IYjajMuCNmnJvVr1-16" value="&lt;div&gt;+ saveFavorite(request: HttpRequest): void&lt;/div&gt;&lt;div&gt;+ loadFavorite(): List&amp;lt;HttpRequest&amp;gt;&lt;/div&gt;&lt;div&gt;+ deleteFavorite(id: int)&lt;/div&gt;" style="text;strokeColor=none;fillColor=none;align=left;verticalAlign=top;spacingLeft=4;spacingRight=4;overflow=hidden;rotatable=0;points=[[0,0.5],[1,0.5]];portConstraint=eastwest;whiteSpace=wrap;html=1;" vertex="1" parent="s-s6IYjajMuCNmnJvVr1-13">
          <mxGeometry y="78" width="350" height="62" as="geometry" />
        </mxCell>
      </root>
    </mxGraphModel>
  </diagram>
</mxfile>
